<?xml version="1.0" standalone="no"?>
<!DOCTYPE svg PUBLIC "-//W3C//DTD SVG 20010904//EN"
 "http://www.w3.org/TR/2001/REC-SVG-20010904/DTD/svg10.dtd">
<svg version="1.0" xmlns="http://www.w3.org/2000/svg"
 width="64.000000pt" height="64.000000pt" viewBox="0 0 64.000000 64.000000"
 preserveAspectRatio="xMidYMid meet">

<g transform="translate(0.000000,64.000000) scale(0.100000,-0.100000)"
fill="#000000" stroke="none">
<path d="M40 340 l0 -220 80 0 80 0 0 -60 c0 -79 16 -79 95 0 l60 59 123 1
122 0 0 220 c0 213 -1 220 -20 220 -19 0 -20 -7 -20 -200 l0 -200 -112 0
c-108 0 -113 -1 -140 -27 l-28 -27 0 27 0 27 -80 0 -80 0 0 200 0 200 -40 0
-40 0 0 -220z"/>
<path d="M275 445 c-32 -31 -31 -43 1 -51 18 -5 29 -1 38 11 8 12 19 16 31 12
15 -6 13 -11 -14 -42 -40 -46 -40 -65 -1 -65 17 0 30 5 30 11 0 6 14 24 30 39
37 35 38 62 4 89 -37 29 -89 27 -119 -4z"/>
<path d="M300 270 c0 -27 3 -30 30 -30 27 0 30 3 30 30 0 27 -3 30 -30 30 -27
0 -30 -3 -30 -30z"/>
</g>

<style>
        path { fill: #000; }
        @media (prefers-color-scheme: dark) {
            path { fill: #FFF; }
        }
    </style>
</svg>
